<svg xmlns="http://www.w3.org/2000/svg" xmlns:xlink="http://www.w3.org/1999/xlink" fill="none" version="1.1" width="288.7779235839844" height="251.3099365234375" viewBox="0 0 288.7779235839844 251.3099365234375"><defs><filter id="master_svg0_6_3053" filterUnits="objectBoundingBox" color-interpolation-filters="sRGB" x="0" y="0" width="90" height="90"><feFlood flood-opacity="0" result="BackgroundImageFix"/><feBlend mode="normal" in="SourceGraphic" in2="BackgroundImageFix" result="shape"/><feColorMatrix in="SourceAlpha" type="matrix" result="hardAlpha" values="0 0 0 0 0 0 0 0 0 0 0 0 0 0 0 0 0 0 127 0"/><feOffset dy="0" dx="0"/><feGaussianBlur stdDeviation="13.5"/><feComposite in2="hardAlpha" operator="arithmetic" k2="-1" k3="1"/><feColorMatrix type="matrix" values="0 0 0 0 0 0 0 0 0 0.30882352590560913 0 0 0 0 0.4117647111415863 0 0 0 0.30000001192092896 0"/><feBlend mode="normal" in2="shape" result="effect1_innerShadow"/></filter><filter id="master_svg1_6_3054" filterUnits="objectBoundingBox" color-interpolation-filters="sRGB" x="0" y="0" width="90" height="90"><feFlood flood-opacity="0" result="BackgroundImageFix"/><feBlend mode="normal" in="SourceGraphic" in2="BackgroundImageFix" result="shape"/><feColorMatrix in="SourceAlpha" type="matrix" result="hardAlpha" values="0 0 0 0 0 0 0 0 0 0 0 0 0 0 0 0 0 0 127 0"/><feOffset dy="0" dx="0"/><feGaussianBlur stdDeviation="13.5"/><feComposite in2="hardAlpha" operator="arithmetic" k2="-1" k3="1"/><feColorMatrix type="matrix" values="0 0 0 0 0 0 0 0 0 0.30882352590560913 0 0 0 0 0.4117647111415863 0 0 0 0.30000001192092896 0"/><feBlend mode="normal" in2="shape" result="effect1_innerShadow"/></filter><linearGradient x1="0.198545441031456" y1="1" x2="1.1483403444290161" y2="0.17722518742084503" id="master_svg2_6_5197"><stop offset="0%" stop-color="#FFFFFF" stop-opacity="1"/><stop offset="100%" stop-color="#FF9696" stop-opacity="1"/></linearGradient></defs><g><g filter="url(#master_svg0_6_3053)"><path d="M152.92896948242188,100L134.99996948242188,100L134.99996948242188,135Q134.99996948242188,144.5711,127.28546948242187,152.2855Q119.57096948242187,160,109.99996948242188,160Q100.42896948242188,160,92.71444948242187,152.2855Q84.99996948242188,144.5711,84.99996948242188,135Q84.99996948242188,125.4289,92.71444948242187,117.7145Q100.42896948242188,110,109.99996948242188,110Q118.17766948242188,110,124.99996948242188,115.6318L124.99996948242188,92.0711Q124.99996948242188,82.9289,131.46446948242186,76.46446Q137.92896948242188,70,147.07096948242187,70L174.99996948242188,70L174.99996948242188,77.92894Q174.99996948242188,87.0711,168.5354694824219,93.5355Q162.07096948242187,100,152.92896948242188,100Z" fill-rule="evenodd" fill="#FFFFFF" fill-opacity="1"/></g><g filter="url(#master_svg1_6_3054)"><path d="M164.21566948242187,118.7132Q172.92896948242188,110,185.2512694824219,110L189.99996948242188,110Q200.35526948242187,110,207.6776694824219,117.32233Q214.99996948242188,124.6447,214.99996948242188,135Q214.99996948242188,145.3553,207.6776694824219,152.67770000000002Q200.35526948242187,160,189.99996948242188,160Q183.78676948242187,160,179.39336948242186,164.39339999999999Q174.99996948242188,168.7868,174.99996948242188,175Q174.99996948242188,185.3553,167.6776694824219,192.67770000000002Q160.35526948242187,200,149.99996948242188,200Q139.64466948242188,200,132.32229948242187,192.67770000000002Q124.99996948242188,185.3553,124.99996948242188,175L124.99996948242188,170.25130000000001Q124.99996948242188,157.9289,133.71316948242188,149.2157L164.21566948242187,118.7132ZM184.99996948242188,141.263C184.99996948242188,142.8604,186.7802694824219,143.8131,188.10936948242187,142.9271L197.5037694824219,136.6641C198.6912694824219,135.8725,198.6912694824219,134.1275,197.5037694824219,133.3359L188.10936948242187,127.0729C186.7802694824219,126.18690000000001,184.99996948242188,127.1396,184.99996948242188,128.737L184.99996948242188,141.263ZM143.73706948242187,170C142.13956948242188,170,141.18686948242188,171.7803,142.07286948242188,173.1094L148.33586948242188,182.5038C149.12756948242188,183.6913,150.87236948242187,183.6913,151.66406948242187,182.5038L157.92706948242187,173.1094C158.81306948242187,171.7803,157.86036948242187,170,156.26286948242188,170L143.73706948242187,170Z" fill-rule="evenodd" fill="#FFFFFF" fill-opacity="1"/></g><g><path d="M287.054,12.8676C287.639,9.80755,288.134,6.74755,288.689,3.67255C288.652,2.97208,288.672,2.26978,288.749,1.57255C288.899,0.282554,288.479,-0.197446,287.249,0.0725538C286.779,0.770253,286.363,1.50232,286.004,2.26255C281.178,14.3476,273.645,25.1649,263.984,33.8826C259.038,38.3558,253.4,41.998,247.289,44.6676C237.103,48.8934,226.561,52.2064,215.789,54.5676C205.57,57.0503,195.294,59.2924,185,61.6196L185,77.9289Q185,84.4891,182.623,90.2285Q180.245,95.9678,175.607,100.607Q175.256,100.957,174.9,101.294Q179.844,100,185.251,100L190,100Q197.167,100,203.424,102.592Q206.844,104.008,209.908,106.164C215.309,101.536,220.788,97.0008,226.274,92.4725C235.334,84.9875,244.484,77.5775,252.929,69.4025C261.631,61.2113,269.226,51.9176,275.519,41.7575C281.07,32.8998,284.978,23.113,287.054,12.8676ZM223.929,126.163Q225,130.393,225,135Q225,142.167,222.408,148.424Q219.816,154.681,214.749,159.749Q209.681,164.816,203.424,167.408Q197.167,170,190,170Q188.882,170,188.069,170.337Q187.255,170.674,186.464,171.464Q185.674,172.255,185.337,173.069Q185,173.883,185,175Q185,182.167,182.408,188.424Q179.816,194.681,174.749,199.749Q169.681,204.816,163.424,207.408Q157.167,210,150,210Q142.833,210,136.576,207.408Q130.319,204.816,125.251,199.749Q120.184,194.681,117.592,188.424Q116.365,185.462,115.719,182.296C114.149,185.99,112.225,189.541,109.964,192.898C103.772,202.258,96.4236,210.801,88.0939,218.323C80.4484,225.455,71.7007,231.306,62.1889,235.648C51.4339,240.448,40.6789,241.078,29.9539,235.453C23.3178,231.89,18.2164,226.02,15.6139,218.953C14.9089,217.258,15.3289,216.763,17.1889,216.943C18.367,217.151,19.5675,217.201,20.7589,217.093C24.7424,216.518,28.2563,214.183,30.3289,210.733C32.3319,207.713,32.3389,207.717,35.3076,209.558L35.3389,209.578C37.7402,211.236,40.9175,211.236,43.3189,209.578C45.261,208.37,46.9395,206.784,48.2539,204.913C50.1758,201.865,51.6603,198.563,52.6639,195.103C54.1924,190.603,56.5028,186.409,59.4889,182.713C59.5639,182.625,59.6519,182.534,59.7425,182.441C60.1772,181.996,60.6723,181.488,60.0889,180.868C59.5023,180.244,58.9988,180.731,58.5524,181.162C58.4623,181.25,58.3745,181.334,58.2889,181.408C56.9839,182.563,55.7539,183.778,54.4189,184.903C51.7339,187.183,49.3939,189.958,46.3939,191.818C45.6589,192.268,44.8489,192.628,44.0539,192.028C43.3385,191.427,43.0903,190.434,43.4389,189.568C43.6411,188.876,44.0063,188.243,44.5039,187.723C47.1739,184.633,49.9789,181.723,52.9789,178.903C59.3327,172.677,63.4602,164.533,64.7239,155.728C64.8233,155.232,64.8233,154.723,64.7239,154.228C64.5739,153.493,64.0489,153.373,63.5539,153.883C63.2425,154.246,62.9987,154.663,62.8339,155.113C60.7039,159.774,57.4457,163.831,53.3539,166.918C49.7058,169.551,45.8246,171.846,41.7589,173.773C34.8589,177.403,27.7639,180.688,21.5389,185.488C20.806,186.099,20.0289,186.656,19.2139,187.153C17.9419,187.806,16.4033,187.641,15.2989,186.733C14.3588,186.049,13.9804,184.828,14.3689,183.733C14.8423,180.923,16.1306,178.315,18.0739,176.233C19.3789,174.823,20.7139,173.488,21.9589,171.988C24.2632,169.372,25.9362,166.262,26.8489,162.898C26.1139,162.913,25.9939,163.393,25.7539,163.708C24.1436,165.798,22.3187,167.713,20.3089,169.423C15.6289,173.278,10.4839,176.428,5.98389,180.598C3.14165,183.093,1.15776,186.421,0.313874,190.108C-1.00613,196.378,1.87387,200.248,8.26387,200.608C9.92887,200.698,10.6489,201.418,10.5439,203.083C10.4094,207.825,11.0997,212.556,12.5839,217.063C16.7389,231.313,25.5289,241.333,39.4189,246.718C49.2089,250.431,59.7019,251.922,70.1389,251.083C81.1066,250.37,91.9036,248.003,102.164,244.063C117.314,238.243,131.099,230.008,144.599,221.008C154.574,214.333,164.339,207.373,174.509,200.983C180.531,196.959,187.097,193.817,194.009,191.653C197.834,190.558,198.644,191.248,197.834,195.058C197.575,196.101,197.405,197.165,197.324,198.238C196.889,205.093,199.589,208.513,206.324,209.833C212.712,211.104,219.321,210.68,225.494,208.603C234.581,205.391,242.834,200.183,249.644,193.363C255.885,187.186,261.419,180.334,266.144,172.933C266.211,172.838,266.285,172.736,266.363,172.628C266.988,171.77,267.859,170.573,267.059,169.933C266.37,169.382,265.647,170.183,264.982,170.919C264.778,171.145,264.579,171.365,264.389,171.538C259.399,176.407,253.724,180.52,247.544,183.748C244.516,185.426,240.935,185.794,237.629,184.768C233.774,183.493,232.829,181.483,234.629,177.913C235.649,175.888,236.909,173.968,238.094,172.018C240.374,168.298,243.134,164.818,244.484,160.588C246.404,154.603,245.054,150.013,239.984,146.578C238.217,145.383,236.294,144.439,234.269,143.773C232.079,143.038,231.809,142.828,233.669,140.968C235.529,139.108,237.539,137.383,239.369,135.493C243.119,131.608,246.809,127.678,250.484,123.733C255.989,117.793,261.419,111.808,266.324,105.343C273.554,95.9375,279.134,85.6926,281.324,73.8425C281.858,71.5633,282.005,69.2105,281.759,66.8825C281.684,66.2975,281.639,65.4125,281.069,65.3825C280.595,65.3576,280.443,65.8924,280.31,66.358C280.283,66.4524,280.257,66.544,280.229,66.6275C279.659,68.3375,279.149,70.0625,278.564,71.7575C275.274,81.3446,269.811,90.0411,262.604,97.1676C258.057,101.526,253.232,105.585,248.159,109.318C240.288,115.224,232.156,120.768,223.929,126.163ZM83.458,157.005Q79.8791,152.848,77.7968,148.182Q75,141.916,75,135Q75,129.41,76.8275,124.243C71.4972,135.485,69.1035,147.556,70.8139,160.723C71.5925,166.221,73.6473,171.461,76.8139,176.023C77.2339,176.653,77.8339,177.493,78.6439,177.193C79.2953,176.951,79.2482,176.293,79.2048,175.686C79.1942,175.538,79.1839,175.393,79.1839,175.258C79.0837,173.045,79.164,170.827,79.4239,168.628C80.2479,164.353,81.5813,160.467,83.458,157.005ZM82.5626,114.072Q83.9732,112.314,85.6434,110.643Q90.8079,105.479,96.8176,102.797Q103.084,100,110,100Q112.551,100,115,100.372L115,92.0711Q115,85.5109,117.377,79.7715Q119.755,74.0322,124.393,69.3934Q129.032,64.7546,134.771,62.3773Q140.511,60,147.071,60L148.332,60C148.565,58.4169,148.694,56.8079,148.694,55.1675C148.752,45.3903,146.16,35.7799,141.194,27.3576C141.125,27.2427,141.06,27.1056,140.992,26.9638C140.751,26.4575,140.481,25.8918,139.919,26.0676C139.112,26.3198,139.27,27.0598,139.412,27.7259C139.438,27.852,139.465,27.9755,139.484,28.0926C140.157,31.7016,140.434,35.3734,140.309,39.0426C140.247,46.1879,137.868,53.1203,133.529,58.7976C126.434,67.7826,118.154,75.5976,109.934,83.4876C100.769,92.2176,91.7089,100.963,84.4339,111.313C83.7915,112.227,83.1676,113.147,82.5626,114.072ZM145,123.787L145,110L152.929,110Q156.397,110,159.636,109.335Q159.589,109.376,159.541,109.417Q158.315,110.471,157.145,111.642L145,123.787Z" fill-rule="evenodd" fill="url(#master_svg2_6_5197)" fill-opacity="1"/></g></g></svg>