<svg xmlns="http://www.w3.org/2000/svg" xmlns:xlink="http://www.w3.org/1999/xlink" fill="none" version="1.1" width="130" height="130" viewBox="0 0 130 130"><defs><filter id="master_svg0_6_3053" filterUnits="objectBoundingBox" color-interpolation-filters="sRGB" x="0" y="0" width="90" height="90"><feFlood flood-opacity="0" result="BackgroundImageFix"/><feBlend mode="normal" in="SourceGraphic" in2="BackgroundImageFix" result="shape"/><feColorMatrix in="SourceAlpha" type="matrix" result="hardAlpha" values="0 0 0 0 0 0 0 0 0 0 0 0 0 0 0 0 0 0 127 0"/><feOffset dy="0" dx="0"/><feGaussianBlur stdDeviation="13.5"/><feComposite in2="hardAlpha" operator="arithmetic" k2="-1" k3="1"/><feColorMatrix type="matrix" values="0 0 0 0 0 0 0 0 0 0.30882352590560913 0 0 0 0 0.4117647111415863 0 0 0 0.30000001192092896 0"/><feBlend mode="normal" in2="shape" result="effect1_innerShadow"/></filter><filter id="master_svg1_6_3054" filterUnits="objectBoundingBox" color-interpolation-filters="sRGB" x="0" y="0" width="90" height="90"><feFlood flood-opacity="0" result="BackgroundImageFix"/><feBlend mode="normal" in="SourceGraphic" in2="BackgroundImageFix" result="shape"/><feColorMatrix in="SourceAlpha" type="matrix" result="hardAlpha" values="0 0 0 0 0 0 0 0 0 0 0 0 0 0 0 0 0 0 127 0"/><feOffset dy="0" dx="0"/><feGaussianBlur stdDeviation="13.5"/><feComposite in2="hardAlpha" operator="arithmetic" k2="-1" k3="1"/><feColorMatrix type="matrix" values="0 0 0 0 0 0 0 0 0 0.30882352590560913 0 0 0 0 0.4117647111415863 0 0 0 0.30000001192092896 0"/><feBlend mode="normal" in2="shape" result="effect1_innerShadow"/></filter></defs><g><g filter="url(#master_svg0_6_3053)"><path d="M67.929,30L50,30L50,65Q50,74.5711,42.2855,82.2855Q34.571,90,25,90Q15.429,90,7.71448,82.2855Q0,74.5711,0,65Q0,55.4289,7.71448,47.7145Q15.429,40,25,40Q33.1777,40,40,45.6318L40,22.0711Q40,12.9289,46.4645,6.46446Q52.929,0,62.071,0L90,0L90,7.92894Q90,17.0711,83.5355,23.5355Q77.071,30,67.929,30Z" fill-rule="evenodd" fill="#FFFFFF" fill-opacity="1"/></g><g filter="url(#master_svg1_6_3054)"><path d="M79.2157,48.7132Q87.929,40,100.2513,40L105,40Q115.3553,40,122.6777,47.32233Q130,54.6447,130,65Q130,75.3553,122.6777,82.6777Q115.3553,90,105,90Q98.7868,90,94.3934,94.3934Q90,98.7868,90,105Q90,115.3553,82.6777,122.6777Q75.3553,130,65,130Q54.6447,130,47.32233,122.6777Q40,115.3553,40,105L40,100.2513Q40,87.9289,48.7132,79.2157L79.2157,48.7132ZM100,71.263C100,72.8604,101.7803,73.81309999999999,103.1094,72.9271L112.5038,66.6641C113.6913,65.8725,113.6913,64.1275,112.5038,63.335899999999995L103.1094,57.072900000000004C101.7803,56.1869,100,57.1396,100,58.736999999999995L100,71.263ZM58.7371,100C57.1396,100,56.1869,101.7803,57.072900000000004,103.1094L63.335899999999995,112.5038C64.1276,113.6913,65.8724,113.6913,66.6641,112.5038L72.9271,103.1094C73.81309999999999,101.7803,72.8604,100,71.2629,100L58.7371,100Z" fill-rule="evenodd" fill="#FFFFFF" fill-opacity="1"/></g></g></svg>